<svg xmlns="http://www.w3.org/2000/svg" viewBox="0 0 33.72 35"><defs><style>.cls-1{fill:#fff;}</style></defs><g id="Capa_2" data-name="Capa 2"><g id="Capa_1-2" data-name="Capa 1"><path class="cls-1" d="M15.18,17.4a.18.18,0,0,1,.06-.19l.6-.47L7.76,7.8l0,0-5.12.8a.49.49,0,0,0-.38.28.6.6,0,0,0,0,.49L3.6,13.38.23,15.76a.57.57,0,0,0-.23.41.58.58,0,0,0,.15.44l3.74,3.95,11.61-2.1Zm-11-3-.32-.89L4.6,13l10.34,4.43Z"/><path class="cls-1" d="M15.92,19.49a.16.16,0,0,1-.15-.11l-.22-.74L5,24.37l-.89,5.55a.63.63,0,0,0,.12.48.54.54,0,0,0,.4.19h0l4-.23,1,4.23A.52.52,0,0,0,10,35a.54.54,0,0,0,.21,0,.46.46,0,0,0,.23-.06L15,32.31l0,0L16.8,19.49ZM9.71,30.06l-.88.06-.22-.92,7.07-9.34Z"/><path class="cls-1" d="M29.61,30l-.9-5.58L18.19,18.64l-.22.74a.16.16,0,0,1-.14.11h-.89L18.7,32.22v.06l4.57,2.64a.55.55,0,0,0,.25.07.54.54,0,0,0,.21-.05.55.55,0,0,0,.3-.38l1-4.2,4,.24h0a.5.5,0,0,0,.38-.19A.61.61,0,0,0,29.61,30Zm-4.71.17L24,30.06l-6-10.2,7.07,9.34Z"/><path class="cls-1" d="M33.72,16.17a.56.56,0,0,0-.24-.43h0l-3.34-2.36,1.44-4.09a.59.59,0,0,0,0-.47.47.47,0,0,0-.36-.27l-5.09-.79H26l-8.12,9,.6.48a.16.16,0,0,1,.06.18l-.32,1.06,11.54,2.09h.07l3.71-3.92A.58.58,0,0,0,33.72,16.17Zm-4.17-1.81-10.75,3L29.13,13l.74.51Z"/><path class="cls-1" d="M20.78.34A.57.57,0,0,0,20.41,0,.48.48,0,0,0,20,.14l-3.1,2.74L13.75.12A.52.52,0,0,0,13.32,0a.51.51,0,0,0-.34.3L10.69,5.4,16,16.59l.76-.6A.15.15,0,0,1,17,16l.76.6L23,5.46l0-.06ZM16.87,15.86,16.19,3.79l.68-.6.68.6Z"/></g></g></svg>