<svg xmlns="http://www.w3.org/2000/svg" viewBox="0 0 36.72 35"><defs><style>.cls-1{fill:#c7a6cf;}.cls-2{fill:#99569e;}.cls-3{fill:#530644;}</style></defs><g id="Capa_2" data-name="Capa 2"><g id="Capa_1-2" data-name="Capa 1"><path class="cls-1" d="M18.36,18.08,17.49,3.73l.85-.7L14.88.23a.41.41,0,0,0-.63.14l-2.47,5Z"/><path class="cls-1" d="M18.36,18.08l.88-14.35L18.39,3,21.82.25A.45.45,0,0,1,22.5.4L25,5.4Z"/><polygon class="cls-2" points="18.39 3.03 17.49 3.73 18.39 17.64 19.24 3.73 18.39 3.03"/><path class="cls-3" d="M18.47,18.57l-6.75-13a.56.56,0,0,1,0-.52L14.11.33A.54.54,0,0,1,14.5,0,.55.55,0,0,1,15,.14L19.1,3.48a.56.56,0,0,1,.21.48ZM14.23.39l.12.06L12,5.18a.28.28,0,0,0,0,.28l6.3,12.12.79-13.64a.32.32,0,0,0-.12-.25L14.81.35a.28.28,0,0,0-.25-.06.31.31,0,0,0-.21.16Z"/><path class="cls-3" d="M18.26,18.57,17.37,4a.57.57,0,0,1,.21-.48L21.68.13A.61.61,0,0,1,22.17,0a.59.59,0,0,1,.39.3L25,5a.59.59,0,0,1,0,.52ZM21.85.34l-4.1,3.35a.29.29,0,0,0-.11.26l.83,13.63L24.73,5.44a.34.34,0,0,0,0-.28L22.32.44a.29.29,0,0,0-.21-.16.31.31,0,0,0-.26.06Z"/><path class="cls-1" d="M18.36,18.08,4.45,14.48l-.4-1L.31,15.88a.41.41,0,0,0-.06.64l4,3.9Z"/><path class="cls-1" d="M18.36,18.08,5,12.81l-.92.59L2.48,9.28a.45.45,0,0,1,.35-.6L8.34,7.9Z"/><polygon class="cls-2" points="4.07 13.4 4.45 14.48 17.96 17.92 4.99 12.81 4.07 13.4"/><path class="cls-3" d="M4.34,20.54a.62.62,0,0,1-.41-.16L.17,16.64A.61.61,0,0,1,0,16.17a.59.59,0,0,1,.26-.42l4.45-2.89a.56.56,0,0,1,.52,0l13.64,5.32L4.43,20.53Zm-4-4.09,3.76,3.73a.33.33,0,0,0,.27.09L17.86,18l-12.73-5a.32.32,0,0,0-.27,0L.41,16a.3.3,0,0,0-.14.22.3.3,0,0,0,.09.25Z"/><path class="cls-3" d="M18.8,18.33,4.63,14.66a.56.56,0,0,1-.39-.34l-1.92-5a.57.57,0,0,1,.45-.77L8,7.77a.57.57,0,0,1,.5.16ZM8.09,8h0l-5.24.83A.34.34,0,0,0,2.59,9a.36.36,0,0,0,0,.27l1.92,4.94a.31.31,0,0,0,.21.18l13.22,3.42L8.31,8.12A.31.31,0,0,0,8.09,8Z"/><path class="cls-1" d="M18.36,18.08,10.64,30.2l-1.1.06,1.15,4.3a.41.41,0,0,0,.6.26l4.95-2.62Z"/><path class="cls-1" d="M18.36,18.08,9.22,29.17l.28,1.06-4.41.23A.44.44,0,0,1,4.63,30l1-5.49Z"/><polygon class="cls-2" points="9.5 30.23 10.64 30.2 18.09 18.41 9.22 29.17 9.5 30.23"/><path class="cls-3" d="M11.11,35a.59.59,0,0,1-.23,0,.56.56,0,0,1-.32-.38L9.19,29.45a.55.55,0,0,1,.11-.51l9.27-11.33L16.4,32.09a.58.58,0,0,1-.31.42l-4.71,2.43A.66.66,0,0,1,11.11,35Zm.14-.3.06.12-.06-.12L16,32.27a.3.3,0,0,0,.16-.22l2-13.51L9.51,29.11a.27.27,0,0,0-.06.27l1.37,5.12a.27.27,0,0,0,.17.2A.3.3,0,0,0,11.25,34.7Z"/><path class="cls-3" d="M5.1,30.65a.57.57,0,0,1-.43-.19A.57.57,0,0,1,4.53,30l.83-5.24a.56.56,0,0,1,.31-.42l13.07-6.58L10.88,30.08a.57.57,0,0,1-.46.27l-5.29.29ZM18,18.42,5.79,24.56a.33.33,0,0,0-.17.23L4.8,30a.31.31,0,0,0,.07.26.35.35,0,0,0,.24.1l5.3-.3a.32.32,0,0,0,.24-.14Z"/><path class="cls-1" d="M18.36,18.08l9.15,11.09-.28,1.06,4.44.24A.42.42,0,0,0,32.1,30l-1-5.52Z"/><path class="cls-1" d="M18.36,18.08,26.09,30.2l1.1.06L26,34.53a.44.44,0,0,1-.63.28L20.49,32.2Z"/><polygon class="cls-2" points="27.18 30.26 27.51 29.17 18.6 18.44 26.09 30.2 27.18 30.26"/><path class="cls-3" d="M31.67,30.6h0l-5.29-.28a.59.59,0,0,1-.46-.26L18,17.74l13.09,6.54a.56.56,0,0,1,.31.42l.85,5.23h0a.56.56,0,0,1-.14.48A.57.57,0,0,1,31.67,30.6ZM18.74,18.42l7.38,11.49a.29.29,0,0,0,.24.14l5.3.28a.31.31,0,0,0,.24-.1A.29.29,0,0,0,32,30h0l-.84-5.24a.32.32,0,0,0-.17-.22Z"/><path class="cls-3" d="M25.67,35a.59.59,0,0,1-.26-.07l-4.72-2.4a.59.59,0,0,1-.31-.43L18.16,17.61l9.31,11.3a.58.58,0,0,1,.11.51l-1.35,5.13a.56.56,0,0,1-.32.37A.53.53,0,0,1,25.67,35Zm-7.1-16.44L20.65,32a.3.3,0,0,0,.16.23l4.72,2.4a.32.32,0,0,0,.27,0,.34.34,0,0,0,.17-.2l1.35-5.13a.32.32,0,0,0-.06-.27Z"/><path class="cls-1" d="M18.36,18.08l13.38-5.27.92.59,1.6-4.15a.41.41,0,0,0-.33-.56L28.38,7.9Z"/><path class="cls-1" d="M18.36,18.08l13.92-3.6.4-1,3.7,2.41a.44.44,0,0,1,.07.69l-4,3.87Z"/><polygon class="cls-2" points="32.68 13.45 31.74 12.81 18.78 17.97 32.28 14.48 32.68 13.45"/><path class="cls-3" d="M17.92,18.33,28.19,7.9a.59.59,0,0,1,.5-.17l5.24.81a.6.6,0,0,1,.41.28.59.59,0,0,1,0,.5l-1.91,4.95a.57.57,0,0,1-.39.35ZM28.6,8a.31.31,0,0,0-.22.09L18.8,17.82,32,14.36a.31.31,0,0,0,.2-.19l1.91-4.95a.3.3,0,0,0,0-.26.27.27,0,0,0-.21-.15L28.65,8Z"/><path class="cls-3" d="M32.4,20.5h-.09L17.86,18.13l13.62-5.36a.56.56,0,0,1,.52.05l4.46,2.87a.56.56,0,0,1,.26.42.57.57,0,0,1-.17.47l-3.74,3.75A.58.58,0,0,1,32.4,20.5ZM18.87,18l13.48,2.2a.3.3,0,0,0,.27-.08l3.74-3.75a.3.3,0,0,0,.09-.25.31.31,0,0,0-.14-.23L31.85,13a.29.29,0,0,0-.27,0Z"/><path class="cls-3" d="M18.11,16.28l-1.21.88a.44.44,0,0,0-.16.48l.47,1.42a.43.43,0,0,0,.41.3h1.5a.42.42,0,0,0,.4-.3L20,17.64a.44.44,0,0,0-.16-.48l-1.21-.88A.44.44,0,0,0,18.11,16.28Z"/><path class="cls-3" d="M19.41,19.49H17.33a.15.15,0,0,1-.16-.11l-.64-2a.14.14,0,0,1,.06-.18L18.27,16a.14.14,0,0,1,.19,0l1.69,1.22a.15.15,0,0,1,.05.18l-.64,2A.15.15,0,0,1,19.41,19.49Zm-.1-.19Zm-1.91-.08h1.93l.59-1.83-1.55-1.13-1.56,1.13ZM20,17.44Zm-3.25,0Zm1.69-1.23Z"/></g></g></svg>