<?xml version="1.0" encoding="utf-8"?>
<!-- Generator: Adobe Illustrator 24.1.1, SVG Export Plug-In . SVG Version: 6.00 Build 0)  -->
<svg version="1.1" id="Capa_1" xmlns="http://www.w3.org/2000/svg" xmlns:xlink="http://www.w3.org/1999/xlink" x="0px" y="0px"
	 viewBox="0 0 256 256" style="enable-background:new 0 0 256 256;" xml:space="preserve">
<style type="text/css">
	.st0{fill:#C7A6CF;}
	.st1{fill:#99569E;}
	.st2{fill:#530644;}
</style>
<g>
	<g>
		<path class="st0" d="M128,131.9l-6-97.9l5.8-4.7l-23.6-19.1c-1.4-1.1-3.5-0.7-4.3,1L83.1,45.5L128,131.9z"/>
	</g>
	<g>
		<path class="st0" d="M128,131.9l6-97.9l-5.8-4.7l23.4-19c1.5-1.2,3.8-0.7,4.6,1l16.7,34.1L128,131.9z"/>
	</g>
	<g>
		<polygon class="st1" points="128.2,29.3 122,34.1 128.2,129 134,34.1 		"/>
	</g>
	<g>
		<path class="st2" d="M128.7,135.3l-46-88.6c-0.6-1.1-0.6-2.5,0-3.6L99,10.9c0.5-1.1,1.5-1.8,2.7-2.1c1.2-0.2,2.4,0,3.3,0.8
			l28.1,22.8c1,0.8,1.5,2,1.4,3.3L128.7,135.3z M102.5,10.6c-0.1,0-0.3,0-0.4,0c-0.6,0.1-1.1,0.5-1.4,1.1L84.3,44
			c-0.3,0.6-0.3,1.3,0,1.9l43,82.7l5.4-93c0-0.7-0.2-1.3-0.8-1.7L103.8,11C103.4,10.7,103,10.6,102.5,10.6z"/>
	</g>
	<g>
		<path class="st2" d="M127.3,135.3l-6.1-99.7c-0.1-1.3,0.5-2.5,1.4-3.3l28-22.9v0c0.9-0.8,2.1-1,3.3-0.8c1.2,0.2,2.1,1,2.7,2.1
			L173.1,43c0.6,1.1,0.6,2.5,0,3.6L127.3,135.3z M153.1,10.5c-0.5,0-0.9,0.2-1.3,0.5v0l-28,22.9c-0.5,0.4-0.8,1.1-0.8,1.7l5.7,93
			l42.7-82.8c0.3-0.6,0.3-1.3,0-1.9L155,11.6c-0.3-0.6-0.8-1-1.4-1.1C153.4,10.5,153.3,10.5,153.1,10.5z"/>
	</g>
	<g>
		<path class="st0" d="M128,131.9l-94.9-24.6l-2.7-7L4.9,116.9c-1.5,1-1.7,3.1-0.4,4.4l27.4,26.6L128,131.9z"/>
	</g>
	<g>
		<path class="st0" d="M128,131.9L36.8,96l-6.3,4.1L19.7,71.9c-0.7-1.8,0.5-3.8,2.4-4.1l37.6-5.4L128,131.9z"/>
	</g>
	<g>
		<polygon class="st1" points="30.5,100.1 33.1,107.4 125.3,130.9 36.8,96 		"/>
	</g>
	<g>
		<path class="st2" d="M32.3,148.8c-1,0-2-0.4-2.8-1.1L3.9,122.1c-0.8-0.8-1.3-2-1.1-3.2s0.8-2.2,1.8-2.9l30.3-19.7
			c1.1-0.7,2.4-0.8,3.6-0.4l93,36.3L33,148.7C32.8,148.7,32.6,148.8,32.3,148.8z M5.2,120.8l25.7,25.5c0.5,0.5,1.2,0.7,1.8,0.6
			l91.9-15.3L37.8,97.7c-0.6-0.2-1.3-0.2-1.9,0.2L5.6,117.6c-0.5,0.3-0.9,0.9-0.9,1.5C4.5,119.8,4.8,120.4,5.2,120.8L5.2,120.8z"/>
	</g>
	<g>
		<path class="st2" d="M131,133.7l-96.7-25c-1.2-0.3-2.2-1.2-2.7-2.4L18.6,72.6c-0.4-1.1-0.3-2.3,0.3-3.4c0.6-1,1.6-1.7,2.8-1.9
			l35.7-5.7c1.2-0.2,2.5,0.2,3.4,1.1L131,133.7z M58,63.4c-0.1,0-0.2,0-0.3,0l-35.7,5.7c-0.6,0.1-1.2,0.5-1.5,1
			c-0.3,0.5-0.4,1.2-0.1,1.8l13.1,33.7c0.2,0.6,0.8,1.1,1.4,1.3l90.2,23.3L59.4,64C59.1,63.6,58.5,63.4,58,63.4z"/>
	</g>
	<g>
		<path class="st0" d="M128,131.9l-52.7,82.7l-7.5,0.4l7.8,29.3c0.5,1.8,2.5,2.6,4.1,1.8l33.8-17.9L128,131.9z"/>
	</g>
	<g>
		<path class="st0" d="M128,131.9l-62.4,75.7l1.9,7.3l-30.1,1.6c-1.9,0.1-3.5-1.6-3.1-3.5l6.5-37.4L128,131.9z"/>
	</g>
	<g>
		<polygon class="st1" points="67.6,214.8 75.3,214.6 126.1,134.2 65.7,207.6 		"/>
	</g>
	<g>
		<path class="st2" d="M78.6,247.4c-0.5,0-1.1-0.1-1.6-0.3c-1.1-0.5-1.9-1.4-2.2-2.6l-9.3-34.9c-0.3-1.2,0-2.5,0.8-3.5l63.2-77.3
			l-14.8,98.7c-0.2,1.2-1,2.3-2.1,2.9l-32.2,16.5l-0.4-0.8l0.4,0.8C79.8,247.2,79.2,247.4,78.6,247.4z M126.6,135.1l-59,72.1
			c-0.4,0.5-0.6,1.2-0.4,1.9l9.3,34.9c0.2,0.6,0.6,1.1,1.2,1.4c0.6,0.3,1.2,0.2,1.8-0.1l32.2-16.5c0.6-0.3,1-0.9,1.1-1.5
			L126.6,135.1z"/>
	</g>
	<g>
		<path class="st2" d="M37.5,217.7c-1.1,0-2.2-0.5-2.9-1.3c-0.8-0.9-1.2-2.1-1-3.2l5.7-35.7c0.2-1.2,1-2.3,2.1-2.9l89.2-44.9
			l-53.6,84.2c-0.7,1.1-1.8,1.7-3.1,1.8l-36.1,2C37.7,217.7,37.6,217.7,37.5,217.7z M125.5,134.3l-83.2,41.9c-0.6,0.3-1,0.9-1.1,1.5
			l-5.7,35.7c-0.1,0.6,0.1,1.3,0.5,1.7c0.4,0.5,1,0.7,1.7,0.7l36.1-2c0.7,0,1.3-0.4,1.6-1L125.5,134.3z"/>
	</g>
	<g>
		<path class="st0" d="M128,131.9l62.4,75.7l-1.9,7.3l30.3,1.6c1.8,0.1,3.2-1.5,2.9-3.3l-6.6-37.6L128,131.9z"/>
	</g>
	<g>
		<path class="st0" d="M128,131.9l52.7,82.7l7.5,0.4l-7.8,29.1c-0.5,1.9-2.6,2.8-4.3,1.9l-33.6-17.8L128,131.9z"/>
	</g>
	<g>
		<polygon class="st1" points="188.2,215 190.4,207.6 129.6,134.4 180.7,214.6 		"/>
	</g>
	<g>
		<path class="st2" d="M218.8,217.4c-0.1,0-0.1,0-0.2,0l-36.1-1.9c-1.3-0.1-2.4-0.7-3.1-1.8l-53.9-84l89.3,44.6
			c1.1,0.6,1.9,1.6,2.1,2.9l5.8,35.7c0.2,1.2-0.2,2.4-1,3.2C221,216.9,219.9,217.4,218.8,217.4z M130.6,134.2l50.3,78.4
			c0.4,0.6,1,0.9,1.6,1l36.1,1.9c0.6,0,1.2-0.2,1.7-0.7c0.4-0.5,0.6-1.1,0.5-1.7l-5.8-35.7c-0.1-0.7-0.5-1.2-1.1-1.5L130.6,134.2z"
			/>
	</g>
	<g>
		<path class="st2" d="M177.9,247.2c-0.6,0-1.2-0.1-1.8-0.4l-32.2-16.4c-1.1-0.6-1.9-1.7-2.1-2.9l-15.2-98.7l63.5,77
			c0.8,1,1.1,2.3,0.8,3.5l-9.2,35c-0.3,1.2-1.1,2.1-2.2,2.6C179,247.1,178.4,247.2,177.9,247.2z M129.4,135.1l14.1,92.1
			c0.1,0.7,0.5,1.2,1.1,1.5l32.2,16.4c0.6,0.3,1.2,0.3,1.8,0c0.6-0.3,1-0.8,1.2-1.4l9.2-35c0.2-0.6,0-1.3-0.4-1.9L129.4,135.1z"/>
	</g>
	<g>
		<path class="st0" d="M128,131.9L219.2,96l6.3,4.1l10.9-28.4c0.7-1.7-0.4-3.6-2.2-3.8l-37.8-5.4L128,131.9z"/>
	</g>
	<g>
		<path class="st0" d="M128,131.9l94.9-24.6l2.7-7l25.3,16.4c1.6,1.1,1.9,3.4,0.5,4.7l-27.3,26.4L128,131.9z"/>
	</g>
	<g>
		<polygon class="st1" points="225.7,100.4 219.2,96 130.9,131.2 222.9,107.4 		"/>
	</g>
	<g>
		<path class="st2" d="M125,133.7l70-71.2c0.9-0.9,2.2-1.3,3.4-1.1l35.7,5.5c1.2,0.2,2.2,0.9,2.8,1.9c0.6,1,0.7,2.3,0.3,3.4
			l-13,33.8c-0.5,1.2-1.4,2.1-2.7,2.4L125,133.7z M197.8,63.2c-0.6,0-1.1,0.2-1.5,0.6L131,130.2l90.1-23.6c0.6-0.2,1.2-0.6,1.4-1.3
			l13-33.8c0.2-0.6,0.2-1.2-0.1-1.8c-0.3-0.5-0.9-0.9-1.5-1l-35.7-5.5C198.1,63.2,198,63.2,197.8,63.2z"/>
	</g>
	<g>
		<path class="st2" d="M223.7,148.4c-0.2,0-0.4,0-0.6-0.1l-98.5-16.1l92.9-36.6c1.2-0.5,2.5-0.3,3.6,0.4l30.4,19.6
			c1,0.6,1.7,1.7,1.8,2.9c0.1,1.2-0.3,2.3-1.1,3.2l-25.6,25.6C225.8,148,224.8,148.4,223.7,148.4z M131.5,131.6l91.9,15
			c0.7,0.1,1.3-0.1,1.8-0.6l25.6-25.6c0.4-0.4,0.7-1.1,0.6-1.7c-0.1-0.6-0.4-1.2-0.9-1.5L220,97.6c-0.6-0.4-1.3-0.4-1.9-0.2
			L131.5,131.6z"/>
	</g>
	<g>
		<path class="st2" d="M127.8,118.6l-11.2,8.1c-0.2,0.1-0.2,0.3-0.2,0.5l4.3,13.2c0.1,0.2,0.2,0.3,0.4,0.3H135
			c0.2,0,0.4-0.1,0.4-0.3l4.3-13.2c0.1-0.2,0-0.4-0.2-0.5l-11.2-8.1C128.1,118.5,127.9,118.5,127.8,118.6z"/>
		<path class="st2" d="M135.1,141.6h-14.2c-0.5,0-0.9-0.3-1.1-0.8l-4.4-13.5c-0.1-0.5,0-1,0.4-1.2l11.5-8.3c0.4-0.3,0.9-0.3,1.3,0
			l11.5,8.3c0.4,0.3,0.6,0.8,0.4,1.2l-4.4,13.5C136,141.3,135.6,141.6,135.1,141.6z M134.4,140.3
			C134.4,140.3,134.4,140.3,134.4,140.3L134.4,140.3z M121.6,140.3L121.6,140.3C121.6,140.3,121.6,140.3,121.6,140.3z M121.5,139.8
			h13.1l4.1-12.5l-10.6-7.7l-10.6,7.7L121.5,139.8z M128.5,119.2L128.5,119.2C128.5,119.2,128.5,119.2,128.5,119.2z"/>
	</g>
</g>
</svg>
