<svg xmlns="http://www.w3.org/2000/svg" viewBox="0 0 284.11 454"><defs><style>.cls-1{fill:#c7a6cf;}.cls-2{fill:#99569e;}.cls-3,.cls-4{fill:#530644;}.cls-4{stroke:#530644;stroke-miterlimit:10;stroke-width:2px;}</style></defs><g id="Capa_2" data-name="Capa 2"><g id="Capa_1-2" data-name="Capa 1"><path class="cls-1" d="M142.08,238,135.3,127l6.59-5.38L115.12,99.9a3.21,3.21,0,0,0-4.9,1.09L91.14,139.91Z"/><path class="cls-1" d="M142.08,238l6.78-111-6.59-5.38,26.56-21.53a3.44,3.44,0,0,1,5.24,1.16l19,38.68Z"/><polygon class="cls-2" points="142.28 121.6 135.3 126.98 142.28 234.63 148.86 126.98 142.28 121.6"/><path class="cls-3" d="M142.9,241.82,90.68,141.33a4.42,4.42,0,0,1,0-4.05l18.49-36.61a4.45,4.45,0,0,1,6.78-1.45L147.79,125a4.47,4.47,0,0,1,1.64,3.72ZM111,101.61,92.52,138.22a2.36,2.36,0,0,0,0,2.15l48.73,93.77,6.09-105.5a2.39,2.39,0,0,0-.87-2l-31.86-25.82a2.37,2.37,0,0,0-3.61.77Z"/><path class="cls-3" d="M141.27,241.83l-6.9-113a4.46,4.46,0,0,1,1.62-3.72l31.77-25.94a4.45,4.45,0,0,1,6.78,1.43l18.63,36.54a4.47,4.47,0,0,1,0,4.06Zm27.81-141.08-31.77,25.94a2.34,2.34,0,0,0-.86,2l6.44,105.48,48.42-93.94a2.41,2.41,0,0,0,0-2.16L172.68,101.5a2.35,2.35,0,0,0-3.6-.75Z"/><path class="cls-1" d="M142.08,238,34.42,210.13l-3.08-7.93L2.43,221a3.21,3.21,0,0,0-.49,5l31.13,30.17Z"/><path class="cls-1" d="M142.08,238,38.61,197.23l-7.15,4.6L19.19,169.92a3.43,3.43,0,0,1,2.72-4.62l42.65-6.07Z"/><polygon class="cls-2" points="31.46 201.83 34.42 210.13 138.96 236.76 38.61 197.23 31.46 201.83"/><path class="cls-3" d="M33.56,257.06a4.45,4.45,0,0,1-3.14-1.29L1.31,226.87A4.46,4.46,0,0,1,2,220l34.41-22.32a4.48,4.48,0,0,1,4-.41L146,238.39,34.28,257A4.37,4.37,0,0,1,33.56,257.06ZM2.78,225.39l29.1,28.9a2.38,2.38,0,0,0,2.06.65l104.23-17.36-98.45-38.4a2.41,2.41,0,0,0-2.15.22L3.16,221.72a2.38,2.38,0,0,0-.38,3.67Z"/><path class="cls-3" d="M145.49,239.94,35.85,211.58a4.46,4.46,0,0,1-3-2.7L18,170.65a4.45,4.45,0,0,1,3.45-6l40.51-6.42a4.48,4.48,0,0,1,3.86,1.26ZM62.62,160.25a2.31,2.31,0,0,0-.37,0L21.74,166.7a2.36,2.36,0,0,0-1.68,1.16,2.34,2.34,0,0,0-.15,2l14.85,38.24a2.38,2.38,0,0,0,1.61,1.43L138.67,236,64.3,161A2.39,2.39,0,0,0,62.62,160.25Z"/><path class="cls-1" d="M142.08,238,82.33,331.77l-8.5.48,8.9,33.28a3.21,3.21,0,0,0,4.61,2l38.31-20.28Z"/><path class="cls-1" d="M142.08,238,71.35,323.79,73.52,332l-34.14,1.8a3.43,3.43,0,0,1-3.56-4l7.41-42.44Z"/><polygon class="cls-2" points="73.52 332.02 82.33 331.77 139.96 240.58 71.35 323.79 73.52 332.02"/><path class="cls-3" d="M86,368.92a4.47,4.47,0,0,1-4.3-3.31L71.08,326a4.45,4.45,0,0,1,.86-4l71.73-87.63-16.81,112a4.46,4.46,0,0,1-2.37,3.3L88,368.42A4.41,4.41,0,0,1,86,368.92Zm1.08-2.35.47.93-.47-.93,36.48-18.75a2.39,2.39,0,0,0,1.26-1.75l15.69-104.5L73.55,323.34a2.37,2.37,0,0,0-.45,2.11l10.59,39.63a2.37,2.37,0,0,0,3.37,1.49Z"/><path class="cls-3" d="M39.44,335.23a4.46,4.46,0,0,1-4.4-5.15l6.41-40.51a4.47,4.47,0,0,1,2.4-3.28L145,235.35l-60.86,95.5a4.43,4.43,0,0,1-3.5,2.06l-40.95,2.31Zm99.73-94.61L44.79,288.15a2.37,2.37,0,0,0-1.28,1.74L37.1,330.4a2.38,2.38,0,0,0,2.47,2.74l40.95-2.32a2.35,2.35,0,0,0,1.86-1.09Z"/><path class="cls-1" d="M142.08,238l70.73,85.81L210.64,332l34.41,1.82a3.21,3.21,0,0,0,3.33-3.76l-7.44-42.7Z"/><path class="cls-1" d="M142.08,238l59.76,93.79,8.49.48-8.83,33a3.43,3.43,0,0,1-4.91,2.15l-38.08-20.16Z"/><polygon class="cls-2" points="210.33 332.25 212.81 323.79 143.89 240.8 201.84 331.77 210.33 332.25"/><path class="cls-3" d="M245,334.88h-.24l-41-2.17a4.44,4.44,0,0,1-3.51-2l-61.18-95.3L240.47,286a4.45,4.45,0,0,1,2.41,3.27l6.55,40.48h0a4.45,4.45,0,0,1-4.39,5.17ZM145,240.61l57.08,88.93a2.37,2.37,0,0,0,1.87,1.08l40.95,2.17a2.4,2.4,0,0,0,1.89-.78,2.34,2.34,0,0,0,.57-2h0l-6.55-40.49a2.37,2.37,0,0,0-1.28-1.74Z"/><path class="cls-3" d="M198.61,368.73a4.45,4.45,0,0,1-2-.49l-36.55-18.62a4.45,4.45,0,0,1-2.38-3.29L140.48,234.39l72,87.39a4.47,4.47,0,0,1,.86,4l-10.45,39.66a4.46,4.46,0,0,1-4.31,3.32ZM143.69,241.57l16,104.45a2.39,2.39,0,0,0,1.27,1.75l36.54,18.61a2.37,2.37,0,0,0,3.36-1.5l10.46-39.66a2.39,2.39,0,0,0-.46-2.11Z"/><path class="cls-1" d="M142.08,238l103.47-40.75,7.15,4.6,12.37-32.16a3.21,3.21,0,0,0-2.55-4.33l-42.91-6.11Z"/><path class="cls-1" d="M142.08,238l107.66-27.85,3.08-7.93,28.68,18.61a3.42,3.42,0,0,1,.52,5.33l-30.93,30Z"/><polygon class="cls-2" points="252.82 202.2 245.55 197.23 145.33 237.13 249.74 210.13 252.82 202.2"/><path class="cls-3" d="M138.68,240l79.43-80.72A4.5,4.5,0,0,1,222,158l40.53,6.28a4.45,4.45,0,0,1,3.47,6l-14.72,38.28a4.46,4.46,0,0,1-3,2.71Zm82.61-80a2.39,2.39,0,0,0-1.69.7L145.48,236,247.7,209.2a2.37,2.37,0,0,0,1.61-1.44L264,169.48a2.37,2.37,0,0,0-1.84-3.19L221.65,160Z"/><path class="cls-3" d="M250.66,256.7a4.25,4.25,0,0,1-.71-.06L138.17,238.4l105.37-41.5a4.48,4.48,0,0,1,4,.4l34.49,22.2a4.45,4.45,0,0,1,.74,6.89l-29,29A4.47,4.47,0,0,1,250.66,256.7ZM146,237.56l104.29,17a2.4,2.4,0,0,0,2.06-.66l29-29A2.36,2.36,0,0,0,282,223a2.32,2.32,0,0,0-1.07-1.74l-34.48-22.2a2.38,2.38,0,0,0-2.15-.21Z"/><path class="cls-3" d="M141.84,222.81l-12.78,9.29a.43.43,0,0,0-.16.48l4.88,15a.44.44,0,0,0,.41.3H150a.43.43,0,0,0,.41-.3l4.88-15a.43.43,0,0,0-.15-.48l-12.79-9.29A.45.45,0,0,0,141.84,222.81Z"/><path class="cls-3" d="M150.14,249H134a1.26,1.26,0,0,1-1.2-.87l-5-15.32a1.26,1.26,0,0,1,.46-1.41l13-9.47a1.26,1.26,0,0,1,1.49,0l13,9.46a1.25,1.25,0,0,1,.46,1.41l-5,15.32A1.27,1.27,0,0,1,150.14,249Zm-15.5-2.08h14.91l4.61-14.18-12.07-8.77L130,232.68Zm20-13.84h0Zm-25.09,0Zm12.06-9.46Zm1,0Z"/><path class="cls-4" d="M53.39,73.7a211.14,211.14,0,0,0,.91-22.11q0-6.09.55-18.38.63-11.37.64-18.29a1.4,1.4,0,0,1,.77-1.27A3.46,3.46,0,0,1,58,13.19a38.15,38.15,0,0,1,7,.73c2.55.49,3.82,1.12,3.82,1.91,0,1-1.06,1.55-3.18,1.55a12.35,12.35,0,0,0-5.1-.91l-1.09.09a.82.82,0,0,0-.41.27,1.68,1.68,0,0,0-.23.55,3.58,3.58,0,0,1-.36,1c0,2.73-.12,5.95-.37,9.64s-.45,6.77-.45,9.56v3.18c0,.25.48.34,1.46.28q4.63,0,4.64,1.45a1.47,1.47,0,0,1-.69,1.23,2.48,2.48,0,0,1-1.5.5A6.36,6.36,0,0,1,60,44a5.73,5.73,0,0,0-1.55-.28q-1.64,0-1.64,4.46V58.41c0,1.46.09,3.61.27,6.47s.28,5.09.28,6.55c0,2.42-.73,3.64-2.19,3.64Zm24.75-.82a13.83,13.83,0,0,0,.18-3q0-8.37.28-24.84t.27-23.66l.18-3.27.28-2.73a.56.56,0,0,1,.63-.64,4.49,4.49,0,0,1,1.28.27l.27.09c0,1.34,0,2.55-.09,3.64V32.21q.09,4.36.09,9.92a13.36,13.36,0,0,0-.09,2L81.33,46c-.06,1.21-.09,2.46-.09,3.73s0,2.67.09,3.82l.09,3.92-.27.72.09-.09a.62.62,0,0,1-.09.37v.36a2.8,2.8,0,0,0,.27,1.27l-.27,8.74v.54a9.49,9.49,0,0,0,.09,1.82.4.4,0,0,0,.45.46l4.73.18c1.4,0,2.35,0,2.87.05l.95,0h.28a1.3,1.3,0,0,1,.91.5,1.58,1.58,0,0,1,.45,1c0,.73-.48,1.12-1.45,1.18s-3.55-.09-7.56-.09l.19.09a15.74,15.74,0,0,0-1.73.09,6.84,6.84,0,0,1-1.64.19C78.84,75,78.32,74.28,78.14,72.88Z"/><path class="cls-4" d="M107.26,42V38.85q0-25.38,6.55-25.38a4.37,4.37,0,0,1,1.27.27A24.83,24.83,0,0,0,120.82,15q1.73.38,3.45,3.55a26.47,26.47,0,0,1,2.87,8.65,62.36,62.36,0,0,1,1,11l-.19.45q0,3,.09,5.37l.1,5.46c0,3.09-.13,5.88-.37,8.37a48.43,48.43,0,0,1-1.82,9.73,18.54,18.54,0,0,1-1.86,4.1,9.81,9.81,0,0,1-2.6,2.73,5.72,5.72,0,0,1-3.55,1.09Q107.27,75.52,107.26,42Zm15.56,25.84a41,41,0,0,0,2.09-10.37c.24-3.64.36-6.56.36-8.74q0-3.65-.54-10.74-.47-7.91-.46-10.73l-.36-.73.18-.46a11,11,0,0,0-2.23-6.91,6.62,6.62,0,0,0-5.41-2.91q-4.19,0-5,4c-.12.91-.24,2.22-.36,3.91a49.7,49.7,0,0,1-.55,9.19c0,.91-.09,2.34-.27,4.28L110.08,42q0,2,.09,3.54l.09,3.64A75.69,75.69,0,0,0,111,59a60.37,60.37,0,0,0,1.27,6.92,15.32,15.32,0,0,0,2.1,4.82c.91,1.45,2,2.18,3.18,2.18Q121.1,72.88,122.82,67.88Zm-6.33-56.69a1.09,1.09,0,0,1-.5-.91,12.15,12.15,0,0,1,2.55-2.36l2.91-2.37,2.46-1.91Q127,1.27,127.28,1c1.33,0,2,.46,2,1.37L129,3.82a54.82,54.82,0,0,0-11.38,7.74A1.94,1.94,0,0,1,116.49,11.19Z"/><path class="cls-4" d="M161.58,74.88q-1.1-1.18-2.37-6.27t-2.36-11.47a86.69,86.69,0,0,0-2.09-10.28q-1.09-4.55-2.1-4.55h-.27c-1.34,0-2,.43-2,1.27q0,6.56.73,19.93.36,8.19.81,9.55l-.72,1.55h-1.28l-.73-.73q-1.45-42-1.45-57.32a7.46,7.46,0,0,1,.14-1.64,2.63,2.63,0,0,1,.59-1.18,1.34,1.34,0,0,1,1.27-.64,11.51,11.51,0,0,1,7.46,2.28A7.92,7.92,0,0,1,160,21.93v6.64a13.83,13.83,0,0,1-1.13,4.64,44.57,44.57,0,0,1-2.51,5.37l-1.18,2.27q1,4.65,4,16.7t3.23,12.78a2.06,2.06,0,0,1,.23.46,6.24,6.24,0,0,0,.59,1.09,5.13,5.13,0,0,1,.63,2.19c0,.84-.33,1.27-1,1.27Zm-7.64-36.57a13.45,13.45,0,0,0,2.18-4.46A37,37,0,0,0,157.58,25a21.89,21.89,0,0,0-.23-3.46,16.68,16.68,0,0,0-.78-2.91q-1.08-3.18-5.18-3.18c-.31,0-.55.26-.73.77a4.83,4.83,0,0,0-.27,1.59q0,6.11.18,11t.09,11l.18.18A3.93,3.93,0,0,0,153.94,38.31Z"/><path class="cls-4" d="M181.69,73.06V71.88a5.7,5.7,0,0,0,.09-1.09l-.37-.36a10.39,10.39,0,0,0,.73-3.74q0-2.09-.27-6l-.18-6q0-4.55.27-13.64.36-8.1.36-13.74l-.18-5.46q-.18-2.46-.18-5.46a2.57,2.57,0,0,1,.64-2,2.88,2.88,0,0,1,2-.59,2,2,0,0,1,1.46.55,22.38,22.38,0,0,0,2.63.36,20.34,20.34,0,0,1,3.92.82c1.15.36,1.73.82,1.73,1.36s-.58,1.22-1.73,1.82A27.67,27.67,0,0,0,185.24,17l-.46.55c.06.55.09,1.85.09,3.91q0,3.91-.18,7t-.09,7.1c0,1.7.42,2.54,1.27,2.54l1.46-.09a12.56,12.56,0,0,1,1.55-.09c2.36,0,3.54.55,3.54,1.64a3,3,0,0,1-.45,1.68,1.54,1.54,0,0,1-1.37.69,2.86,2.86,0,0,1-2.09-.73l-2.91-.46h-.45l-.46.46v.27q.18,1.55.18,7.19c0,2.36,0,4.52-.09,6.46l-.09,6.46c0,2.37.09,4.79.27,7.28a3.78,3.78,0,0,0,.91,2.77,4.83,4.83,0,0,0,3,.69l1.63-.09a16.63,16.63,0,0,1,1.82-.1c1.76,0,2.64.4,2.64,1.19,0,1.09-1.33,1.64-4,1.64h-7.46C182.42,75,181.81,74.34,181.69,73.06Z"/><path class="cls-4" d="M209.35,73.43a26.64,26.64,0,0,0,2.77-7.37,100.87,100.87,0,0,0,1.69-10.37,77.74,77.74,0,0,1,1.09-8l4.18-30.21c.19-1.21.34-2.27.46-3.19a56,56,0,0,0,.73-7.09,24.78,24.78,0,0,0-3,.27l-3.09.18c-2.73,0-4.09-.6-4.09-1.82l.63-.73a7.9,7.9,0,0,0,2.19.19,32,32,0,0,0,4.27-.46,23.18,23.18,0,0,1,4.28-.45c1,0,1.45.54,1.45,1.63-.66,1.46-1.15,4.37-1.45,8.74a34.72,34.72,0,0,1-.36,4L218.36,39.4q-2.28,17.84-3.64,25.75a13.8,13.8,0,0,1-1.1,3.27,11.25,11.25,0,0,0-1,3.64l3-.18a22.45,22.45,0,0,1,2.91-.27c2.55,0,3.82.61,3.82,1.82l-.82.82q-3,0-5.37.18l-5.46.18C210.23,74.61,209.77,74.22,209.35,73.43Z"/><path class="cls-4" d="M22.23,449.18q-.36-6.29-.36-15.83,0-6,.09-10.74l.09-10.74q0-6.92-.36-17.1a2.34,2.34,0,0,1-.82-1.82,1.86,1.86,0,0,1,.77-1.32,2.23,2.23,0,0,1,1.41-.68,1.84,1.84,0,0,1,1.37.72l1,.82a8.7,8.7,0,0,0,2.09.55,11.39,11.39,0,0,1,2.19.54,20.09,20.09,0,0,1,3.63,2.83,25.8,25.8,0,0,0,3,2.72l-.09.19a8.65,8.65,0,0,0,1.36,2.36,22.33,22.33,0,0,1,1.64,2.55,33.62,33.62,0,0,1,1.45,10.83c0,.79,0,1.48-.09,2.09v2.91l-.09.91a5.65,5.65,0,0,0,.55,2.73q-.55,2.91-1.37,11a40.42,40.42,0,0,1-.91,5,19.05,19.05,0,0,1-1.54,4.36,19.16,19.16,0,0,1-7.92,7.56H23C22.48,451.64,22.23,450.82,22.23,449.18ZM29,449a11.08,11.08,0,0,1,1.18-1.19l.64-.45.73-.64q6.36-5.73,6.36-21.84v-1.72a12.8,12.8,0,0,1-.09-1.55l-.36-9.19a26.69,26.69,0,0,0-3.19-10.92,12.6,12.6,0,0,0-3.68-4.6,7.92,7.92,0,0,0-4.87-1.77q-1.1,0-1.09,16.83,0,19.49,1.09,33.94l-.09,1.73.36.18.19,1.19Z"/><path class="cls-4" d="M60.54,450.45v-1.18a5.7,5.7,0,0,0,.09-1.09l-.36-.37a10.49,10.49,0,0,0,.72-3.73q0-2.08-.27-6l-.18-6q0-4.54.27-13.65.36-8.09.37-13.74L61,399.22c-.12-1.63-.18-3.45-.18-5.45a2.55,2.55,0,0,1,.64-2,2.88,2.88,0,0,1,2-.59,2,2,0,0,1,1.46.54,19,19,0,0,0,2.64.37,19.5,19.5,0,0,1,3.91.82c1.15.36,1.73.82,1.73,1.36s-.58,1.22-1.73,1.82a27.67,27.67,0,0,0-7.37-1.73l-.46.55c.06.54.09,1.85.09,3.91q0,3.92-.18,7c-.06,2.12-.09,4.49-.09,7.09,0,1.7.43,2.55,1.28,2.55l1.45-.09a12.68,12.68,0,0,1,1.55-.09c2.36,0,3.55.55,3.55,1.64a3,3,0,0,1-.46,1.68,1.51,1.51,0,0,1-1.36.68,2.88,2.88,0,0,1-2.1-.72l-2.91-.46H64l-.46.46v.27q.18,1.55.18,7.19c0,2.36,0,4.52-.09,6.46L63.54,439q0,3.54.28,7.28a3.75,3.75,0,0,0,.91,2.77,4.78,4.78,0,0,0,3,.69l1.64-.1a16.65,16.65,0,0,1,1.82-.09c1.75,0,2.63.4,2.63,1.19,0,1.09-1.33,1.63-4,1.63H62.36C61.27,452.36,60.66,451.73,60.54,450.45Z"/><path class="cls-4" d="M116.22,452.27a77.51,77.51,0,0,1-1-13.1q0-2.91.28-8.46l.18-8.46a4.93,4.93,0,0,1-.64-2.1q.92-1.45.91-8.37,0-16.56-.45-17.65c.54-1.52,1-2.27,1.27-2.27h4a7,7,0,0,1,2.87.95,16.25,16.25,0,0,1,3.14,2.05q2.26,2.08,2.27,10.73a69.87,69.87,0,0,1-.27,7.1,10.39,10.39,0,0,1-.59,2.73A13.83,13.83,0,0,1,127,417.7a11,11,0,0,1-4.64,3.64,21.19,21.19,0,0,1-3.82,1.45v10.83q0,2.28.45,8.92l.19,2.91.18,5.91c0,1.09-.58,1.64-1.73,1.64Zm7.37-35a10.17,10.17,0,0,0,1.19-2.45,15.47,15.47,0,0,0,.73-3,30.63,30.63,0,0,0,.54-6.09v-2.46q0-1.28-.09-2.46a13.62,13.62,0,0,0-.36-2.27,6.52,6.52,0,0,0-1-2,5,5,0,0,0-1.59-1.32,5.92,5.92,0,0,0-2.64-.54,1.94,1.94,0,0,0-1.55.54,3.08,3.08,0,0,0-.45,1.91q0,2.19.27,6.55l.18,6.56c0,1.57-.06,3-.18,4.27l-.18,4.28.64.91A5.39,5.39,0,0,0,123.59,417.24Z"/><path class="cls-4" d="M162.81,451.68a3.07,3.07,0,0,1-.55-1.68c-.54-4.43-.88-7.19-1-8.28l-.45-3.64a20.23,20.23,0,0,0-4.55-.46l-3.28-.18a28.93,28.93,0,0,0-3.18-.27c-.37,0-.58.15-.64.45s0,.28-.09.28l-.18,1.82c-.06,1.09-.4,3.27-1,6.55a17.13,17.13,0,0,1-1.09,3.82c-.49,1-1,1.55-1.37,1.55a2,2,0,0,1-1.18-.5,1.39,1.39,0,0,1-.64-1.05l.09-.27.09-.28q1.64-6.45,2.73-12.83l1.09-5.64,1.1-6.91,1-6c.3-1.64.85-4.27,1.63-7.91q1.28-6.19,1.55-8.47c.06-.18.18-1.3.37-3.36q.36-3.46.63-5.1a8.93,8.93,0,0,1,.55-2.73h.64a2,2,0,0,0,.63.09,2.24,2.24,0,0,0,1.64-.54,1.74,1.74,0,0,1,1.14.41,1.21,1.21,0,0,1,.5.95,89.14,89.14,0,0,0,.64,10c.24,1.94.42,3.55.54,4.82q1,11.74,5.1,44v.27a1.53,1.53,0,0,1-.73,1.37A3,3,0,0,1,162.81,451.68Zm-2.46-16.06q-.9-13.1-3.45-38.67L152,421.25q-2.08,10.46-2.09,13.19c0,.3,1.15.58,3.46.82a59.49,59.49,0,0,0,6.09.36Z"/><path class="cls-4" d="M184.1,452.27a76.49,76.49,0,0,1-1-13.1q0-2.91.27-8.46l.18-8.46a5,5,0,0,1-.63-2.1c.6-1,.91-3.76.91-8.37q0-16.56-.46-17.65c.55-1.52,1-2.27,1.28-2.27h4a7,7,0,0,1,2.87.95,16.56,16.56,0,0,1,3.14,2.05q2.26,2.08,2.27,10.73a69.87,69.87,0,0,1-.27,7.1,10.81,10.81,0,0,1-.59,2.73,15.53,15.53,0,0,1-1.23,2.28,11,11,0,0,1-4.64,3.64,21.34,21.34,0,0,1-3.83,1.45v10.83c0,1.52.16,4.49.46,8.92l.18,2.91.18,5.91c0,1.09-.57,1.64-1.72,1.64Zm7.37-35a10.19,10.19,0,0,0,1.18-2.45,14.15,14.15,0,0,0,.73-3,29.85,29.85,0,0,0,.55-6.09v-2.46q0-1.28-.09-2.46a13.62,13.62,0,0,0-.37-2.27,6.28,6.28,0,0,0-.95-2,5.17,5.17,0,0,0-1.6-1.32,5.84,5.84,0,0,0-2.63-.54,1.93,1.93,0,0,0-1.55.54,3,3,0,0,0-.46,1.91q0,2.19.28,6.55l.18,6.56c0,1.57-.06,3-.18,4.27l-.19,4.28.64.91A5.39,5.39,0,0,0,191.47,417.24Z"/><path class="cls-4" d="M214.4,450.45v-1.18a5.7,5.7,0,0,0,.09-1.09l-.36-.37a10.49,10.49,0,0,0,.72-3.73q0-2.08-.27-6l-.18-6q0-4.54.27-13.65.36-8.09.37-13.74l-.19-5.46c-.12-1.63-.18-3.45-.18-5.45a2.55,2.55,0,0,1,.64-2,2.88,2.88,0,0,1,2-.59,2,2,0,0,1,1.46.54,19,19,0,0,0,2.63.37,19.46,19.46,0,0,1,3.92.82c1.15.36,1.73.82,1.73,1.36s-.58,1.22-1.73,1.82A27.67,27.67,0,0,0,218,394.4l-.46.55c.06.54.09,1.85.09,3.91q0,3.92-.18,7c-.06,2.12-.09,4.49-.09,7.09,0,1.7.42,2.55,1.27,2.55l1.46-.09a12.56,12.56,0,0,1,1.55-.09c2.36,0,3.55.55,3.55,1.64a3,3,0,0,1-.46,1.68,1.51,1.51,0,0,1-1.36.68,2.88,2.88,0,0,1-2.1-.72l-2.91-.46h-.45l-.46.46v.27q.18,1.55.18,7.19c0,2.36,0,4.52-.09,6.46L217.4,439q0,3.54.27,7.28a3.79,3.79,0,0,0,.91,2.77,4.83,4.83,0,0,0,3,.69l1.63-.1a16.91,16.91,0,0,1,1.82-.09c1.76,0,2.64.4,2.64,1.19,0,1.09-1.33,1.63-4,1.63h-7.46C215.13,452.36,214.52,451.73,214.4,450.45Z"/><path class="cls-4" d="M245.61,450.27a13.83,13.83,0,0,0,.18-3q0-8.37.27-24.84t.28-23.66l.18-3.28.27-2.73a.56.56,0,0,1,.64-.63,4.37,4.37,0,0,1,1.27.27l.27.09c0,1.34,0,2.55-.09,3.64V409.6q.09,4.36.09,9.92a13.36,13.36,0,0,0-.09,2l-.09,1.91c-.06,1.21-.09,2.46-.09,3.73s0,2.67.09,3.82l.09,3.91-.27.73.09-.09a.52.52,0,0,1-.09.36v.37a2.83,2.83,0,0,0,.27,1.27l-.27,8.74v.54a9.57,9.57,0,0,0,.09,1.82.4.4,0,0,0,.46.46l4.73.18c1.39,0,2.35,0,2.86,0s.84.05,1,.05H258a1.26,1.26,0,0,1,.91.5,1.53,1.53,0,0,1,.46,1.05c0,.73-.49,1.12-1.46,1.18s-3.55-.09-7.55-.09l.18.09a15.87,15.87,0,0,0-1.73.09,6.8,6.8,0,0,1-1.64.18C246.3,452.36,245.79,451.67,245.61,450.27Z"/></g></g></svg>